<svg xmlns="http://www.w3.org/2000/svg" shape-rendering="geometricPrecision" text-rendering="geometricPrecision" image-rendering="optimizeQuality" fill-rule="evenodd" clip-rule="evenodd" viewBox="0 0 424 511.54"><path fill="#262626" fill-rule="nonzero" d="M86.37 413.44c-11.76 0-11.76-17.89 0-17.89H189.1c-.2 2.95-.31 5.93-.31 8.94s.11 5.99.31 8.95H86.37zm1.81-147.13H60.57l5.02-82.59h34.49l10.31 42.02h.92l10.31-42.02h34.48l5.03 82.59h-27.62l-1.59-40.04H131l-10.05 40.04h-20.21l-10.18-40.04h-.79l-1.59 40.04zm126.46-19.96h-17.17v19.96h-26.43v-82.59h41.62c18.94 0 28.41 10.17 28.41 30.52 0 11.19-2.47 19.47-7.4 24.84-1.85 2.03-4.4 3.75-7.66 5.16-3.26 1.41-7.05 2.11-11.37 2.11zm-17.17-41.49v20.35h6.07c3.17 0 5.49-.33 6.94-.99 1.45-.66 2.18-2.18 2.18-4.56v-9.25c0-2.38-.73-3.9-2.18-4.56-1.45-.66-3.77-.99-6.94-.99h-6.07zm91.04 7.93v-8.59c-2.64-.44-6.91-.66-12.82-.66-5.9 0-13.26.92-22.07 2.77l-3.43-19.55c10.75-3.35 21.14-5.02 31.18-5.02 8.64 0 14.89.52 18.77 1.58 3.88 1.06 6.74 2.34 8.59 3.83 4.05 3.44 6.08 8.64 6.08 15.6 0 8.81-3.66 15.15-10.97 19.03v.66c8.72 3.61 13.08 10.17 13.08 19.68 0 4.67-.73 8.66-2.18 11.96-1.45 3.31-3.28 5.86-5.48 7.67-2.21 1.8-5.11 3.23-8.72 4.29-5.38 1.5-12.93 2.25-22.67 2.25-9.73 0-19.49-1.15-29.27-3.44l3.7-21.8c8.37 2.03 15.46 3.04 21.28 3.04 5.81 0 10.79-.27 14.93-.79v-8.46l-22.73-2.25v-19.16l22.73-2.64zm-22.7-188.53v29.1c0 65.66 15.31 69.47 69.08 69.47h22.03l-91.11-98.57zm94.33 115.92h-21.48c-61.02 0-90.2-4.09-90.2-86.28V17.35H56.82c-21.7 0-39.47 17.78-39.47 39.47v264.79H219.2c-4.64 5.47-8.83 11.34-12.51 17.54H17.35v89.83c0 21.62 17.85 39.47 39.47 39.47h149.04c3.53 6.12 7.56 11.92 12.02 17.34H56.82C25.63 485.79 0 460.17 0 428.98V56.82C0 25.55 25.55 0 56.82 0h206.33a8.68 8.68 0 016.93 3.45l105.07 113.68c2.19 2.37 2.34 4.66 2.34 7.52v166.86c-5.55-2.98-11.35-5.56-17.35-7.71V140.18z"/><path fill="red" d="M316.95 297.45c59.12 0 107.05 47.93 107.05 107.05 0 59.11-47.93 107.04-107.05 107.04S209.9 463.61 209.9 404.5c0-59.12 47.93-107.05 107.05-107.05z"/><path fill="#fff" fill-rule="nonzero" d="M337.9 356.54l-3.77 47.75 17.35-6.07c11.47-4.4 23.27 3.72 14.38 13.82-10.82 12.45-27.26 29.55-39.22 40.94-7.43 7.42-11.73 7.49-19.18.06-13.24-13-26.24-27.44-39.18-40.87-9.25-10.06 2.3-18.55 14.28-13.95l17.16 6.01c-1.25-16.28-2.82-31.84-3.77-48.1 0-2.99 2.5-5.39 5.42-5.61 10.31 0 20.84-.24 31.12 0 2.92.22 5.42 2.62 5.42 5.61l-.01.41z"/></svg>