<svg width="400" height="400" xmlns="http://www.w3.org/2000/svg" fill="#000000">
 <g>
  <title>Layer 1</title>
  <g stroke-width="0" id="SVGRepo_bgCarrier"/>
  <g stroke-linejoin="round" stroke-linecap="round" id="SVGRepo_tracerCarrier"/>

  <path stroke="null" id="svg_1" fill="#101010" d="m365.17787,93.19444l-96.75982,0a6.45065,4.30556 0 0 1 -6.45065,-4.30556l0,-64.58333a6.45065,4.30556 0 0 1 12.90131,0l0,60.27778l90.30916,0a6.45065,4.30556 0 0 1 0,8.61111z" class="cls-1"/>
  <path stroke="null" id="svg_2" fill="#101010" d="m368.95052,136.10361a6.67803,4.30556 0 0 1 -6.67803,-4.30556l0,-41.12667l-96.25714,-62.06028l-197.57623,0a26.71212,17.22222 0 0 0 -26.71212,17.22222l0,84.53528a6.67803,4.30556 0 0 1 -13.35606,0l0,-84.53528a40.06819,25.83333 0 0 1 40.06819,-25.83333l200.34093,0a6.67803,4.30556 0 0 1 4.72805,1.25722l100.17047,64.58333a6.67803,4.30556 0 0 1 1.94999,3.04833l0,42.90917a6.67803,4.30556 0 0 1 -6.67803,4.30556z" class="cls-1"/>
  <path stroke="null" id="svg_3" fill="#101010" d="m335.56035,310l-267.12125,0a40.06819,50.92424 0 0 1 -40.06819,-50.92424l0,-127.3106a6.67803,8.48737 0 0 1 13.35606,0l0,127.3106a26.71212,33.94949 0 0 0 26.71212,33.94949l267.12125,0a26.71212,33.94949 0 0 0 26.71212,-33.94949l0,-127.3106a6.67803,8.48737 0 0 1 13.35606,0l0,127.3106a40.06819,50.92424 0 0 1 -40.06819,50.92424z" class="cls-1"/>
  <text style="cursor: move;" font-weight="bold" xml:space="preserve" text-anchor="start" font-family="'Commissioner'" font-size="128" stroke-width="15" id="svg_10" y="217.79998" x="59.40001" stroke="null" fill="#000000">MP3</text>
  <path transform="rotate(180 212.821 325.988)" stroke="null" id="svg_11" d="m140.32051,325.82574l72.50002,-67.338l72.50002,67.338l-36.25001,0l0,67.66202l-72.50001,0l0,-67.66202l-36.25001,0z" stroke-width="15" fill="#000000"/>
 </g>
</svg>